<svg width="24" height="22" viewBox="0 0 24 22" fill="none" xmlns="http://www.w3.org/2000/svg">
<path d="M6.46484 10.4H5.19531V6.89902C5.19531 6.733 5.15299 6.60768 5.06836 6.52304C4.98372 6.43515 4.85677 6.3912 4.6875 6.3912H2.39746V5.12167H4.6875C4.80794 5.12167 4.9349 5.13632 5.06836 5.16562C5.20182 5.19166 5.33366 5.23398 5.46387 5.29257C5.59733 5.35117 5.72428 5.42766 5.84473 5.52206C5.96517 5.61321 6.07096 5.72551 6.16211 5.85898C6.25326 5.98919 6.3265 6.14055 6.38184 6.31308C6.43717 6.48561 6.46484 6.68092 6.46484 6.89902V10.4ZM1.88477 10.4H0.615234V2.89023H1.88477V10.4ZM13.3984 9.76035C13.3984 9.85149 13.3822 9.93613 13.3496 10.0143C13.3171 10.0924 13.2715 10.1607 13.2129 10.2193C13.1576 10.2747 13.0908 10.3186 13.0127 10.3512C12.9378 10.3837 12.8564 10.4 12.7686 10.4H9.89746C9.74121 10.4 9.57357 10.3821 9.39453 10.3463C9.21875 10.3105 9.0446 10.2535 8.87207 10.1754C8.69954 10.094 8.5319 9.99309 8.36914 9.87265C8.20964 9.74895 8.06966 9.60084 7.94922 9.42831C7.82878 9.25253 7.73112 9.05071 7.65625 8.82285C7.58464 8.59498 7.54883 8.33782 7.54883 8.05136V5.12167H8.81836V8.05136C8.81836 8.21738 8.84603 8.36712 8.90137 8.50058C8.95996 8.63079 9.03809 8.74309 9.13574 8.83749C9.2334 8.93189 9.34733 9.00514 9.47754 9.05722C9.611 9.10605 9.75423 9.13046 9.90723 9.13046H12.1289V5.12167H13.3984V9.76035ZM16.9092 10.4H16.3428C16.1605 10.4 15.9652 10.3691 15.7568 10.3072C15.5518 10.2454 15.3597 10.1445 15.1807 10.0045C15.0016 9.86126 14.8535 9.67734 14.7363 9.45273C14.6191 9.22486 14.5605 8.94654 14.5605 8.61777V2.89023H15.8301V8.61777C15.8301 8.77402 15.8789 8.89934 15.9766 8.99374C16.0742 9.08489 16.1963 9.13046 16.3428 9.13046H16.9092V10.4ZM23.4668 8.61777C23.4668 8.83587 23.4391 9.03281 23.3838 9.20859C23.3285 9.38111 23.2552 9.53411 23.1641 9.66757C23.0729 9.79778 22.9671 9.91009 22.8467 10.0045C22.7262 10.0956 22.5993 10.1705 22.4658 10.2291C22.3356 10.2877 22.2021 10.3316 22.0654 10.3609C21.932 10.387 21.805 10.4 21.6846 10.4H19.3945C19.2188 10.4 19.0267 10.3691 18.8184 10.3072C18.61 10.2454 18.4163 10.1445 18.2373 10.0045C18.0615 9.86126 17.9134 9.67734 17.793 9.45273C17.6758 9.22486 17.6172 8.94654 17.6172 8.61777V6.89902C17.6172 6.5735 17.6758 6.29843 17.793 6.07382C17.9134 5.84596 18.0615 5.66204 18.2373 5.52206C18.4163 5.37884 18.61 5.2763 18.8184 5.21445C19.0267 5.1526 19.2188 5.12167 19.3945 5.12167H21.6846C22.0101 5.12167 22.2868 5.18027 22.5146 5.29745C22.7425 5.41464 22.9264 5.56275 23.0664 5.74179C23.2064 5.91757 23.3073 6.10963 23.3691 6.31796C23.4342 6.5263 23.4668 6.71998 23.4668 6.89902V8.61777ZM22.1973 6.90878C22.1973 6.733 22.1533 6.60279 22.0654 6.51816C21.9775 6.43352 21.8506 6.3912 21.6846 6.3912H19.4043C19.235 6.3912 19.1064 6.43515 19.0186 6.52304C18.9307 6.60768 18.8867 6.733 18.8867 6.89902V8.61777C18.8867 8.78378 18.9307 8.91074 19.0186 8.99863C19.1064 9.08652 19.235 9.13046 19.4043 9.13046H21.6846C21.8571 9.13046 21.9857 9.08652 22.0703 8.99863C22.1549 8.91074 22.1973 8.78378 22.1973 8.61777V6.90878Z" fill="white"/>
<path d="M1.65527 17.9889C1.65527 18.0768 1.63737 18.1598 1.60156 18.2379C1.56901 18.3128 1.52344 18.3795 1.46484 18.4381C1.40951 18.4935 1.34277 18.5374 1.26465 18.57C1.18978 18.6025 1.11003 18.6188 1.02539 18.6188C0.9375 18.6188 0.854492 18.6025 0.776367 18.57C0.701497 18.5374 0.634766 18.4935 0.576172 18.4381C0.520833 18.3795 0.476888 18.3128 0.444336 18.2379C0.411784 18.1598 0.395508 18.0768 0.395508 17.9889C0.395508 17.9043 0.411784 17.8245 0.444336 17.7497C0.476888 17.6715 0.520833 17.6048 0.576172 17.5495C0.634766 17.4909 0.701497 17.4453 0.776367 17.4128C0.854492 17.3769 0.9375 17.359 1.02539 17.359C1.11003 17.359 1.18978 17.3769 1.26465 17.4128C1.34277 17.4453 1.40951 17.4909 1.46484 17.5495C1.52344 17.6048 1.56901 17.6715 1.60156 17.7497C1.63737 17.8245 1.65527 17.9043 1.65527 17.9889ZM8.4375 16.8463C8.4375 17.0644 8.40983 17.2614 8.35449 17.4372C8.29915 17.6097 8.22591 17.7627 8.13477 17.8961C8.04362 18.0264 7.93783 18.1387 7.81738 18.2331C7.69694 18.3242 7.56999 18.3991 7.43652 18.4577C7.30632 18.5163 7.17285 18.5602 7.03613 18.5895C6.90267 18.6155 6.77572 18.6286 6.65527 18.6286H4.36523C4.14714 18.6286 3.95182 18.6009 3.7793 18.5456C3.60677 18.4902 3.45378 18.417 3.32031 18.3258C3.1901 18.2314 3.0778 18.124 2.9834 18.0036C2.89225 17.8831 2.81738 17.7578 2.75879 17.6276C2.7002 17.4941 2.65625 17.3607 2.62695 17.2272C2.60091 17.0905 2.58789 16.9635 2.58789 16.8463V15.1276C2.58789 14.8021 2.64648 14.527 2.76367 14.3024C2.88411 14.0745 3.03223 13.8906 3.20801 13.7506C3.38704 13.6074 3.58073 13.5049 3.78906 13.443C3.9974 13.3812 4.18945 13.3503 4.36523 13.3503H6.65527V14.6198H4.375C4.20573 14.6198 4.07715 14.6637 3.98926 14.7516C3.90137 14.8363 3.85742 14.9616 3.85742 15.1276V16.8366C3.85742 17.0091 3.89974 17.1393 3.98438 17.2272C4.07227 17.3151 4.19922 17.359 4.36523 17.359H6.65527C6.8278 17.359 6.95638 17.3151 7.04102 17.2272C7.12565 17.1393 7.16797 17.0124 7.16797 16.8463V11.1188H8.4375V16.8463ZM15.3271 15.0983C15.3271 15.2741 15.2962 15.4645 15.2344 15.6696C15.1725 15.8714 15.0716 16.0602 14.9316 16.236C14.7949 16.4085 14.6143 16.5534 14.3896 16.6706C14.1683 16.7878 13.8981 16.8463 13.5791 16.8463H11.2891V15.6403H13.5791C13.7516 15.6403 13.8851 15.5882 13.9795 15.484C14.0739 15.3766 14.1211 15.2448 14.1211 15.0885C14.1211 14.9225 14.0674 14.7923 13.96 14.6979C13.8558 14.6035 13.7288 14.5563 13.5791 14.5563H11.2891C11.1165 14.5563 10.9831 14.61 10.8887 14.7174C10.7943 14.8216 10.7471 14.9518 10.7471 15.1081V16.8805C10.7471 17.0498 10.7992 17.1816 10.9033 17.276C11.0107 17.3704 11.1426 17.4176 11.2988 17.4176H13.5791V18.6286H11.2891C11.1133 18.6286 10.9229 18.5976 10.7178 18.5358C10.516 18.4739 10.3271 18.3747 10.1514 18.2379C9.97884 18.098 9.83398 17.9173 9.7168 17.696C9.59961 17.4713 9.54102 17.1995 9.54102 16.8805V15.0983C9.54102 14.9225 9.57194 14.7337 9.63379 14.5319C9.69564 14.3268 9.79492 14.138 9.93164 13.9655C10.0716 13.7897 10.2523 13.6432 10.4736 13.526C10.6982 13.4088 10.9701 13.3503 11.2891 13.3503H13.5791C13.7549 13.3503 13.9437 13.3812 14.1455 13.443C14.3506 13.5049 14.5394 13.6058 14.7119 13.7458C14.8877 13.8825 15.0342 14.0631 15.1514 14.2878C15.2686 14.5091 15.3271 14.7793 15.3271 15.0983ZM22.4805 13.3503C22.3372 13.7962 22.1696 14.2357 21.9775 14.6686C21.7855 15.1016 21.5641 15.515 21.3135 15.9088C21.0661 16.2995 20.7878 16.6624 20.4785 16.9977C20.1725 17.3297 19.8324 17.6178 19.458 17.862C19.0869 18.1029 18.6816 18.2933 18.2422 18.4333C17.806 18.57 17.3324 18.6383 16.8213 18.6383C16.7334 18.6383 16.6504 18.6221 16.5723 18.5895C16.4941 18.557 16.4258 18.513 16.3672 18.4577C16.3086 18.3991 16.263 18.3323 16.2305 18.2575C16.1979 18.1794 16.1816 18.0963 16.1816 18.0085V13.3503H17.4512V17.32C17.7604 17.32 18.0566 17.2532 18.3398 17.1198C18.6263 16.9863 18.8965 16.8105 19.1504 16.5924C19.4043 16.3711 19.6387 16.1204 19.8535 15.8405C20.0716 15.5605 20.2653 15.2741 20.4346 14.9811C20.6038 14.6849 20.7471 14.3952 20.8643 14.112C20.9847 13.8288 21.0742 13.5749 21.1328 13.3503H22.4805Z" fill="white"/>
</svg>
