<svg width="327" height="257" viewBox="0 0 327 257" fill="none" xmlns="http://www.w3.org/2000/svg">
<g clip-path="url(#clip0)">
<path d="M50.35 31.07C58.6367 31.07 65.41 33.8833 70.67 39.51C75.93 45.1367 78.56 53.47 78.56 64.51V114.7H51.15L51 68.83C51 64.7967 49.8833 61.9567 47.65 60.31C45.4918 58.6875 42.86 57.8196 40.16 57.84C37.4752 57.7499 34.8377 58.5633 32.67 60.15C30.6413 61.6987 28.8667 63.5543 27.41 65.65V114.73H0V0H27.41V44C29.9843 40.471 33.1351 37.4013 36.73 34.92C40.39 32.3533 44.93 31.07 50.35 31.07Z" fill="white"/>
<path d="M177 33.46V82.22C177 89.5533 175.333 95.82 172 101.02C168.648 106.254 163.866 110.419 158.22 113.02C151.918 115.877 145.058 117.291 138.14 117.16C131.224 117.284 124.367 115.863 118.07 113C112.424 110.4 107.641 106.235 104.29 101C100.957 95.8 99.29 89.5333 99.29 82.2V33.46H126.7L126.86 74.89C126.86 80.4166 127.737 84.4533 129.49 87C131.243 89.5466 134.137 90.82 138.17 90.82C142.203 90.82 145.097 89.5466 146.85 87C148.603 84.4533 149.48 80.4166 149.48 74.89L149.64 33.46H177Z" fill="white"/>
<path d="M225.94 0V114.72H198.54V0H225.94Z" fill="white"/>
<path d="M225.94 0V114.72H198.54V0H225.94Z" fill="white"/>
<path d="M282.24 31.0699C287.864 31.0704 293.435 32.1534 298.65 34.2599C303.924 36.3587 308.783 39.3791 313 43.1799C317.243 47.0016 320.68 51.6322 323.11 56.7999C325.637 62.21 326.915 68.1191 326.85 74.0899C326.915 80.0608 325.637 85.9699 323.11 91.3799C320.68 96.5477 317.243 101.178 313 105C308.787 108.8 303.931 111.821 298.66 113.92C288.132 118.168 276.367 118.168 265.84 113.92C260.564 111.823 255.705 108.802 251.49 105C247.242 101.18 243.801 96.5496 241.37 91.3799C238.842 85.9703 237.563 80.0609 237.63 74.0899C237.563 68.119 238.842 62.2096 241.37 56.7999C243.801 51.6303 247.242 46.9994 251.49 43.1799C255.703 39.3793 260.558 36.3588 265.83 34.2599C271.044 32.1529 276.616 31.0699 282.24 31.0699V31.0699ZM282.24 57.3599C280.034 57.4152 277.853 57.8446 275.79 58.6299C273.288 59.5688 271.145 61.2686 269.66 63.4899C267.96 65.8833 267.11 69.4166 267.11 74.0899C267.11 78.6566 267.96 82.1633 269.66 84.6099C271.124 86.8681 273.272 88.5991 275.79 89.5499C277.852 90.3362 280.033 90.7656 282.24 90.8199C284.474 90.7808 286.684 90.351 288.77 89.5499C291.255 88.5797 293.372 86.8513 294.82 84.6099C296.52 82.1699 297.37 78.6633 297.37 74.0899C297.37 69.4233 296.52 65.8899 294.82 63.4899C293.352 61.2856 291.239 59.5883 288.77 58.6299C286.684 57.8299 284.474 57.4001 282.24 57.3599V57.3599Z" fill="white"/>
<path d="M14.34 223.68C16.2188 223.652 18.0838 224.005 19.8228 224.716C21.5619 225.428 23.1392 226.484 24.46 227.82C25.7988 229.152 26.8612 230.735 27.5862 232.478C28.3112 234.222 28.6844 236.092 28.6844 237.98C28.6844 239.868 28.3112 241.738 27.5862 243.482C26.8612 245.225 25.7988 246.808 24.46 248.14C23.1503 249.497 21.5768 250.571 19.8364 251.297C18.096 252.022 16.2255 252.384 14.34 252.36C12.4543 252.385 10.5835 252.024 8.84289 251.298C7.10232 250.572 5.52898 249.498 4.22 248.14C2.88118 246.808 1.81875 245.225 1.09378 243.482C0.368815 241.738 -0.00439453 239.868 -0.00439453 237.98C-0.00439453 236.092 0.368815 234.222 1.09378 232.478C1.81875 230.735 2.88118 229.152 4.22 227.82C5.5404 226.483 7.11765 225.427 8.85682 224.716C10.596 224.004 12.4611 223.652 14.34 223.68Z" fill="white"/>
<path d="M126.67 134.61V249.33H99.27V235.79C97.2076 240.297 94.0141 244.193 90 247.1C85.6453 250.25 80.3724 251.874 75 251.72C69.0221 251.728 63.1515 250.133 58 247.1C52.6667 244.02 48.3333 239.267 45 232.84C41.6667 226.413 40 218.313 40 208.54C40 199.407 41.6667 191.653 45 185.28C48.0159 179.263 52.6582 174.212 58.4 170.7C63.902 167.382 70.2151 165.651 76.64 165.7C80.9623 165.718 85.2297 166.67 89.15 168.49C92.9627 170.154 96.4036 172.565 99.27 175.58V134.58L126.67 134.61ZM82.37 192.45C80.4769 192.427 78.6048 192.848 76.9032 193.678C75.2016 194.508 73.7177 195.724 72.57 197.23C69.9679 200.417 68.5854 204.426 68.67 208.54C68.5551 212.582 69.9856 216.516 72.67 219.54C73.9846 221.01 75.6072 222.171 77.4221 222.942C79.237 223.713 81.1996 224.074 83.17 224C85.6702 223.959 88.1258 223.332 90.34 222.17C92.8723 220.868 95.0356 218.949 96.63 216.59C98.4816 213.744 99.404 210.393 99.27 207V199.19C96.8717 197.242 94.2168 195.634 91.38 194.41C88.549 193.138 85.4837 192.47 82.38 192.45H82.37Z" fill="white"/>
<path d="M185.59 165.68C192.721 165.549 199.76 167.308 205.99 170.78C211.877 174.116 216.705 179.045 219.92 185C223.253 191.113 224.92 198.363 224.92 206.75V216.15H169.65C170.16 218.009 171.044 219.745 172.247 221.251C173.451 222.757 174.949 224.002 176.65 224.91C180.378 226.877 184.545 227.865 188.76 227.78C194.21 227.897 199.634 227.006 204.76 225.15C208.234 223.871 211.615 222.354 214.88 220.61V244.03C211.268 246.117 207.451 247.826 203.49 249.13C192.751 252.639 181.158 252.527 170.49 248.81C165.217 246.951 160.33 244.141 156.07 240.52C151.832 236.905 148.421 232.42 146.07 227.37C143.571 221.925 142.32 215.99 142.41 210C142.328 202.346 144.229 194.801 147.928 188.099C151.627 181.398 156.999 175.769 163.52 171.76C170.153 167.685 177.806 165.577 185.59 165.68V165.68ZM184.79 188.31C181.541 188.232 178.354 189.211 175.71 191.1C172.963 193.248 171.001 196.243 170.13 199.62H199C199 195.793 197.54 192.953 194.62 191.1C191.684 189.235 188.268 188.265 184.79 188.31V188.31Z" fill="white"/>
<path d="M241.61 160.82L322.87 199.7V217.39L241.61 256.59V225L282.72 208.59L241.61 192.34V160.82Z" fill="#F79F1F"/>
</g>
<defs>
<clipPath id="clip0">
<rect width="326.85" height="256.58" fill="white"/>
</clipPath>
</defs>
</svg>
