<?xml version="1.0" encoding="UTF-8"?>
<svg width="227px" height="24px" viewBox="0 0 227 24" version="1.1" xmlns="http://www.w3.org/2000/svg" xmlns:xlink="http://www.w3.org/1999/xlink">
    <!-- Generator: Sketch 52.5 (67469) - http://www.bohemiancoding.com/sketch -->
    <title>humeniuk.dev</title>
    <desc>Created with Sketch.</desc>
    <g id="Page-1" stroke="none" stroke-width="1" fill="none" fill-rule="evenodd">
        <g id="Home" transform="translate(-32.000000, -1462.000000)" fill="#FFFFFF">
            <path d="M38.2,1468.36 C40.2693437,1467.93333 42.0826589,1467.72 43.64,1467.72 L45.08,1467.72 C46.5306739,1467.72 47.693329,1468.15733 48.568,1469.032 C49.442671,1469.90667 49.88,1471.06933 49.88,1472.52 L49.88,1485 L44.28,1485 L44.28,1473.16 C44.28,1472.84 44.1733344,1472.57333 43.96,1472.36 C43.7466656,1472.14667 43.4800016,1472.04 43.16,1472.04 L42.04,1472.04 C41.2293293,1472.04 40.4880034,1472.08267 39.816,1472.168 C39.1439966,1472.25333 38.6053354,1472.31733 38.2,1472.36 L38.2,1485 L32.6,1485 L32.6,1462.6 L38.2,1462.6 L38.2,1468.36 Z M60.8666666,1480.68 C61.9973389,1480.68 63.2773261,1480.46667 64.7066666,1480.04 L64.7066666,1468.04 L70.3066666,1468.04 L70.3066666,1485 L65.3466666,1485 L65.0266666,1483.4 C64.0239949,1484.06134 62.9946719,1484.54667 61.9386666,1484.856 C60.8826613,1485.16533 59.9920036,1485.32 59.2666666,1485.32 L57.8266666,1485.32 C56.3759927,1485.32 55.2133376,1484.88267 54.3386666,1484.008 C53.4639956,1483.13333 53.0266666,1481.97067 53.0266666,1480.52 L53.0266666,1468.04 L58.6266666,1468.04 L58.6266666,1479.56 C58.6266666,1479.88 58.7333322,1480.14667 58.9466666,1480.36 C59.160001,1480.57333 59.426665,1480.68 59.7466666,1480.68 L60.8666666,1480.68 Z M85.1333332,1467.72 C86.8613418,1467.72 88.1946618,1468.35999 89.1333332,1469.64 C90.1146714,1468.97866 91.1759942,1468.49333 92.3173332,1468.184 C93.4586722,1467.87467 94.4773287,1467.72 95.3733332,1467.72 L95.6933332,1467.72 C97.1440071,1467.72 98.3066622,1468.15733 99.1813332,1469.032 C100.056004,1469.90667 100.493333,1471.06933 100.493333,1472.52 L100.493333,1485 L94.8933332,1485 L94.8933332,1473.48 C94.8933332,1473.16 94.7866676,1472.89333 94.5733332,1472.68 C94.3599988,1472.46667 94.0933348,1472.36 93.7733332,1472.36 L93.6133332,1472.36 C92.6533284,1472.36 91.426674,1472.57333 89.9333332,1473 L89.9333332,1485 L84.3333332,1485 L84.3333332,1473.48 C84.3333332,1473.16 84.2266676,1472.89333 84.0133332,1472.68 C83.7999988,1472.46667 83.5333348,1472.36 83.2133332,1472.36 L83.0533332,1472.36 C82.0933284,1472.36 80.866674,1472.57333 79.3733332,1473 L79.3733332,1485 L73.7733332,1485 L73.7733332,1468.04 L78.7333332,1468.04 L79.0533332,1469.64 C80.0560049,1468.97866 81.0853279,1468.49333 82.1413332,1468.184 C83.1973385,1467.87467 84.0879962,1467.72 84.8133332,1467.72 L85.1333332,1467.72 Z M110.2,1471.72 C109.346662,1471.72 108.92,1472.14666 108.92,1473 L108.92,1474.76 L114.36,1474.76 L114.36,1473 C114.36,1472.14666 113.933337,1471.72 113.08,1471.72 L110.2,1471.72 Z M119.32,1484.68 C115.202646,1485.10667 111.46935,1485.32 108.12,1485.32 C106.669326,1485.32 105.506671,1484.88267 104.632,1484.008 C103.757329,1483.13333 103.32,1481.97067 103.32,1480.52 L103.32,1472.84 C103.32,1471.23999 103.773329,1469.98667 104.68,1469.08 C105.586671,1468.17333 106.839992,1467.72 108.44,1467.72 L114.84,1467.72 C116.440008,1467.72 117.693329,1468.17333 118.6,1469.08 C119.506671,1469.98667 119.96,1471.23999 119.96,1472.84 L119.96,1478.76 L108.92,1478.76 L108.92,1480.04 C108.92,1480.36 109.026665,1480.62667 109.24,1480.84 C109.453334,1481.05333 109.719998,1481.16 110.04,1481.16 C112.15201,1481.16 115.245313,1481 119.32,1480.68 L119.32,1484.68 Z M132.546666,1472.36 C131.415994,1472.36 130.136007,1472.57333 128.706666,1473 L128.706666,1485 L123.106666,1485 L123.106666,1468.04 L128.066666,1468.04 L128.386666,1469.64 C129.389338,1468.97866 130.418661,1468.49333 131.474666,1468.184 C132.530672,1467.87467 133.421329,1467.72 134.146666,1467.72 L135.586666,1467.72 C137.03734,1467.72 138.199995,1468.15733 139.074666,1469.032 C139.949337,1469.90667 140.386666,1471.06933 140.386666,1472.52 L140.386666,1485 L134.786666,1485 L134.786666,1473.48 C134.786666,1473.16 134.680001,1472.89333 134.466666,1472.68 C134.253332,1472.46667 133.986668,1472.36 133.666666,1472.36 L132.546666,1472.36 Z M150.573333,1468.68 L150.573333,1485 L144.973333,1485 L144.973333,1473 L142.573333,1473 L142.573333,1468.68 L150.573333,1468.68 Z M144.973333,1462.28 L150.573333,1462.28 L150.573333,1466.76 L144.973333,1466.76 L144.973333,1462.28 Z M161.88,1480.68 C163.010672,1480.68 164.290659,1480.46667 165.72,1480.04 L165.72,1468.04 L171.32,1468.04 L171.32,1485 L166.36,1485 L166.04,1483.4 C165.037328,1484.06134 164.008005,1484.54667 162.952,1484.856 C161.895994,1485.16533 161.005337,1485.32 160.28,1485.32 L158.84,1485.32 C157.389326,1485.32 156.226671,1484.88267 155.352,1484.008 C154.477329,1483.13333 154.04,1481.97067 154.04,1480.52 L154.04,1468.04 L159.64,1468.04 L159.64,1479.56 C159.64,1479.88 159.746665,1480.14667 159.96,1480.36 C160.173334,1480.57333 160.439998,1480.68 160.76,1480.68 L161.88,1480.68 Z M180.386666,1478.28 L180.386666,1485 L174.786666,1485 L174.786666,1462.6 L180.386666,1462.6 L180.386666,1473.96 L182.946666,1473.96 L186.466666,1468.04 L192.386666,1468.04 L187.586666,1476.2 L192.386666,1485 L186.466666,1485 L182.786666,1478.28 L180.386666,1478.28 Z M193.613333,1480.2 L199.373333,1480.2 L199.373333,1485 L193.613333,1485 L193.613333,1480.2 Z M214.199999,1485 L213.879999,1483.4 C212.877328,1484.06134 211.848005,1484.54667 210.791999,1484.856 C209.735994,1485.16533 208.845336,1485.32 208.119999,1485.32 L206.679999,1485.32 C205.229325,1485.32 204.06667,1484.88267 203.191999,1484.008 C202.317328,1483.13333 201.879999,1481.97067 201.879999,1480.52 L201.879999,1473.16 C201.879999,1471.55999 202.333328,1470.30667 203.239999,1469.4 C204.146671,1468.49333 205.399991,1468.04 206.999999,1468.04 L213.559999,1468.04 L213.559999,1462.6 L219.159999,1462.6 L219.159999,1485 L214.199999,1485 Z M209.719999,1480.68 C210.850672,1480.68 212.130659,1480.46667 213.559999,1480.04 L213.559999,1472.36 L208.759999,1472.36 C207.906662,1472.36 207.479999,1472.78666 207.479999,1473.64 L207.479999,1479.56 C207.479999,1479.88 207.586665,1480.14667 207.799999,1480.36 C208.013334,1480.57333 208.279998,1480.68 208.599999,1480.68 L209.719999,1480.68 Z M229.186666,1471.72 C228.333328,1471.72 227.906666,1472.14666 227.906666,1473 L227.906666,1474.76 L233.346666,1474.76 L233.346666,1473 C233.346666,1472.14666 232.920004,1471.72 232.066666,1471.72 L229.186666,1471.72 Z M238.306666,1484.68 C234.189312,1485.10667 230.456016,1485.32 227.106666,1485.32 C225.655992,1485.32 224.493337,1484.88267 223.618666,1484.008 C222.743995,1483.13333 222.306666,1481.97067 222.306666,1480.52 L222.306666,1472.84 C222.306666,1471.23999 222.759995,1469.98667 223.666666,1469.08 C224.573337,1468.17333 225.826658,1467.72 227.426666,1467.72 L233.826666,1467.72 C235.426674,1467.72 236.679995,1468.17333 237.586666,1469.08 C238.493337,1469.98667 238.946666,1471.23999 238.946666,1472.84 L238.946666,1478.76 L227.906666,1478.76 L227.906666,1480.04 C227.906666,1480.36 228.013332,1480.62667 228.226666,1480.84 C228.44,1481.05333 228.706664,1481.16 229.026666,1481.16 C231.138677,1481.16 234.231979,1481 238.306666,1480.68 L238.306666,1484.68 Z M253.133333,1468.04 L259.053333,1468.04 L252.653333,1485 L246.253333,1485 L239.853333,1468.04 L245.773333,1468.04 L249.453333,1479.56 L253.133333,1468.04 Z" id="humeniuk.dev"></path>
        </g>
    </g>
</svg>