<?xml version="1.0" encoding="UTF-8"?>
<svg width="437px" height="81px" viewBox="0 0 437 81" version="1.1" xmlns="http://www.w3.org/2000/svg" xmlns:xlink="http://www.w3.org/1999/xlink">
    <!-- Generator: Sketch 52.5 (67469) - http://www.bohemiancoding.com/sketch -->
    <title>Group 11</title>
    <desc>Created with Sketch.</desc>
    <defs>
        <rect id="path-1" x="0" y="0" width="437" height="81"></rect>
    </defs>
    <g id="Page-1" stroke="none" stroke-width="1" fill="none" fill-rule="evenodd">
        <g id="Home" transform="translate(-377.000000, -5209.000000)">
            <g id="Footer" transform="translate(0.000000, 5130.000000)">
                <g id="Group-11" transform="translate(377.000000, 79.000000)">
                    <mask id="mask-2" fill="white">
                        <use xlink:href="#path-1"></use>
                    </mask>
                    <rect stroke="#FFFFFF" x="0.5" y="0.5" width="436" height="80"></rect>
                    <g id="Group-9" mask="url(#mask-2)" fill="#FFFFFF" fill-rule="nonzero">
                        <g transform="translate(88.792893, 27.207107) rotate(45.000000) translate(-88.792893, -27.207107) translate(-6.707107, -409.292893)" id="Rectangle">
                            <rect x="0.101244712" y="0.232233047" width="2" height="867"></rect>
                            <rect x="3.63677862" y="5.18198052" width="2" height="867"></rect>
                            <rect x="7.8794193" y="5.18198052" width="2" height="867"></rect>
                            <rect x="12.12206" y="5.18198052" width="2" height="867"></rect>
                            <rect x="15.6575939" y="0.232233047" width="2" height="867"></rect>
                            <rect x="19.9002346" y="0.232233047" width="2" height="867"></rect>
                            <rect x="24.1428753" y="0.232233047" width="2" height="867"></rect>
                            <rect x="27.6784092" y="5.18198052" width="2" height="867"></rect>
                            <rect x="31.9210499" y="5.18198052" width="2" height="867"></rect>
                            <rect x="35.4565838" y="0.232233047" width="2" height="867"></rect>
                            <rect x="39.6992245" y="0.232233047" width="2" height="867"></rect>
                            <rect x="43.9418651" y="0.232233047" width="2" height="867"></rect>
                            <rect x="48.1845058" y="0.232233047" width="2" height="867"></rect>
                            <rect x="51.7200397" y="5.18198052" width="2" height="867"></rect>
                            <rect x="55.9626804" y="5.18198052" width="2" height="867"></rect>
                            <rect x="59.4982143" y="0.232233047" width="2" height="867"></rect>
                            <rect x="63.740855" y="0.232233047" width="2" height="867"></rect>
                            <rect x="67.9834957" y="0.232233047" width="2" height="867"></rect>
                            <rect x="72.2261364" y="0.232233047" width="2" height="867"></rect>
                            <rect x="75.7616703" y="5.18198052" width="2" height="867"></rect>
                            <rect x="80.004311" y="5.18198052" width="2" height="867"></rect>
                            <rect x="83.5398449" y="0.232233047" width="2" height="867"></rect>
                            <rect x="87.7824856" y="0.232233047" width="2" height="867"></rect>
                            <rect x="92.0251263" y="0.232233047" width="2" height="867"></rect>
                            <rect x="95.5606602" y="5.18198052" width="2" height="867"></rect>
                            <rect x="99.8033009" y="5.18198052" width="2" height="867"></rect>
                            <rect x="104.045942" y="5.18198052" width="2" height="867"></rect>
                            <rect x="107.581475" y="0.232233047" width="2" height="867"></rect>
                            <rect x="111.824116" y="0.232233047" width="2" height="867"></rect>
                            <rect x="116.066757" y="0.232233047" width="2" height="867"></rect>
                            <rect x="119.602291" y="5.18198052" width="2" height="867"></rect>
                            <rect x="123.844931" y="5.18198052" width="2" height="867"></rect>
                            <rect x="128.087572" y="5.18198052" width="2" height="867"></rect>
                            <rect x="131.623106" y="0.232233047" width="2" height="867"></rect>
                            <rect x="135.865747" y="0.232233047" width="2" height="867"></rect>
                            <rect x="140.108387" y="0.232233047" width="2" height="867"></rect>
                            <rect x="143.643921" y="5.18198052" width="2" height="867"></rect>
                            <rect x="147.886562" y="5.18198052" width="2" height="867"></rect>
                            <rect x="151.422096" y="0.232233047" width="2" height="867"></rect>
                            <rect x="155.664737" y="0.232233047" width="2" height="867"></rect>
                            <rect x="159.907377" y="0.232233047" width="2" height="867"></rect>
                            <rect x="164.150018" y="0.232233047" width="2" height="867"></rect>
                            <rect x="167.685552" y="5.18198052" width="2" height="867"></rect>
                            <rect x="171.928193" y="5.18198052" width="2" height="867"></rect>
                            <rect x="175.463726" y="0.232233047" width="2" height="867"></rect>
                            <rect x="179.706367" y="0.232233047" width="2" height="867"></rect>
                            <rect x="183.949008" y="0.232233047" width="2" height="867"></rect>
                            <rect x="188.191649" y="0.232233047" width="2" height="867"></rect>
                        </g>
                    </g>
                    <g id="Group-9" mask="url(#mask-2)" fill="#FFFFFF" fill-rule="nonzero">
                        <g transform="translate(359.792893, 27.207107) rotate(45.000000) translate(-359.792893, -27.207107) translate(264.292893, -409.292893)" id="Rectangle">
                            <rect x="0.101244712" y="0.232233047" width="2" height="867"></rect>
                            <rect x="3.63677862" y="5.18198052" width="2" height="867"></rect>
                            <rect x="7.8794193" y="5.18198052" width="2" height="867"></rect>
                            <rect x="12.12206" y="5.18198052" width="2" height="867"></rect>
                            <rect x="15.6575939" y="0.232233047" width="2" height="867"></rect>
                            <rect x="19.9002346" y="0.232233047" width="2" height="867"></rect>
                            <rect x="24.1428753" y="0.232233047" width="2" height="867"></rect>
                            <rect x="27.6784092" y="5.18198052" width="2" height="867"></rect>
                            <rect x="31.9210499" y="5.18198052" width="2" height="867"></rect>
                            <rect x="35.4565838" y="0.232233047" width="2" height="867"></rect>
                            <rect x="39.6992245" y="0.232233047" width="2" height="867"></rect>
                            <rect x="43.9418651" y="0.232233047" width="2" height="867"></rect>
                            <rect x="48.1845058" y="0.232233047" width="2" height="867"></rect>
                            <rect x="51.7200397" y="5.18198052" width="2" height="867"></rect>
                            <rect x="55.9626804" y="5.18198052" width="2" height="867"></rect>
                            <rect x="59.4982143" y="0.232233047" width="2" height="867"></rect>
                            <rect x="63.740855" y="0.232233047" width="2" height="867"></rect>
                            <rect x="67.9834957" y="0.232233047" width="2" height="867"></rect>
                            <rect x="72.2261364" y="0.232233047" width="2" height="867"></rect>
                            <rect x="75.7616703" y="5.18198052" width="2" height="867"></rect>
                            <rect x="80.004311" y="5.18198052" width="2" height="867"></rect>
                            <rect x="83.5398449" y="0.232233047" width="2" height="867"></rect>
                            <rect x="87.7824856" y="0.232233047" width="2" height="867"></rect>
                            <rect x="92.0251263" y="0.232233047" width="2" height="867"></rect>
                            <rect x="95.5606602" y="5.18198052" width="2" height="867"></rect>
                            <rect x="99.8033009" y="5.18198052" width="2" height="867"></rect>
                            <rect x="104.045942" y="5.18198052" width="2" height="867"></rect>
                            <rect x="107.581475" y="0.232233047" width="2" height="867"></rect>
                            <rect x="111.824116" y="0.232233047" width="2" height="867"></rect>
                            <rect x="116.066757" y="0.232233047" width="2" height="867"></rect>
                            <rect x="119.602291" y="5.18198052" width="2" height="867"></rect>
                            <rect x="123.844931" y="5.18198052" width="2" height="867"></rect>
                            <rect x="128.087572" y="5.18198052" width="2" height="867"></rect>
                            <rect x="131.623106" y="0.232233047" width="2" height="867"></rect>
                            <rect x="135.865747" y="0.232233047" width="2" height="867"></rect>
                            <rect x="140.108387" y="0.232233047" width="2" height="867"></rect>
                            <rect x="143.643921" y="5.18198052" width="2" height="867"></rect>
                            <rect x="147.886562" y="5.18198052" width="2" height="867"></rect>
                            <rect x="151.422096" y="0.232233047" width="2" height="867"></rect>
                            <rect x="155.664737" y="0.232233047" width="2" height="867"></rect>
                            <rect x="159.907377" y="0.232233047" width="2" height="867"></rect>
                            <rect x="164.150018" y="0.232233047" width="2" height="867"></rect>
                            <rect x="167.685552" y="5.18198052" width="2" height="867"></rect>
                            <rect x="171.928193" y="5.18198052" width="2" height="867"></rect>
                            <rect x="175.463726" y="0.232233047" width="2" height="867"></rect>
                            <rect x="179.706367" y="0.232233047" width="2" height="867"></rect>
                            <rect x="183.949008" y="0.232233047" width="2" height="867"></rect>
                            <rect x="188.191649" y="0.232233047" width="2" height="867"></rect>
                        </g>
                    </g>
                </g>
            </g>
        </g>
    </g>
</svg>